HIERARCHY
ROOT SpineBase
{
  OFFSET 0.000000 0.000000 0.000000
  CHANNELS 6 Xposition Yposition Zposition Zrotation Xrotation Yrotation
  JOINT SpineMid
  {
    OFFSET 0.000000 27.159377 0.000000
    CHANNELS 3 Zrotation Xrotation Yrotation
    JOINT SpineShoulder
    {
      OFFSET 0.029675 20.239404 -0.564388
      CHANNELS 3 Zrotation Xrotation Yrotation
      JOINT Neck
      {
        OFFSET -0.081388 6.737721 -0.452709
        CHANNELS 3 Zrotation Xrotation Yrotation
        JOINT Head
        {
          OFFSET 2.461595 12.655218 -0.010538
          CHANNELS 3 Zrotation Xrotation Yrotation
          End Site
          {
            OFFSET 0 0 0
          }
        }
      }
      JOINT ShoulderLeft
      {
        OFFSET -10.978815 -3.047588 -8.105780
        CHANNELS 3 Zrotation Xrotation Yrotation
        JOINT ElbowLeft
        {
          OFFSET -4.735701 -21.219323 -2.737272
          CHANNELS 3 Zrotation Xrotation Yrotation
          JOINT WristLeft
          {
            OFFSET 1.297518 -19.824180 -4.962282
            CHANNELS 3 Zrotation Xrotation Yrotation
            JOINT HandLeft
            {
              OFFSET 1.661419 -7.329073 0.046011
              CHANNELS 3 Zrotation Xrotation Yrotation
              JOINT HandTipLeft
              {
                OFFSET 0.024880 -6.496849 -0.606830
                CHANNELS 3 Zrotation Xrotation Yrotation
                End Site
                {
                  OFFSET 0 0 0
                }
              }
              JOINT ThumbLeft
              {
                OFFSET -2.759372 -0.714761 -2.146037
                CHANNELS 3 Zrotation Xrotation Yrotation
                End Site
                {
                  OFFSET 0 0 0
                }
              }
            }
          }
        }
      }
      JOINT ShoulderRight
      {
        OFFSET 12.153102 -3.441083 5.153037
        CHANNELS 3 Zrotation Xrotation Yrotation
        JOINT ElbowRight
        {
          OFFSET 2.763820 -27.658216 5.705029
          CHANNELS 3 Zrotation Xrotation Yrotation
          JOINT WristRight
          {
            OFFSET -12.954468 21.514145 -2.661781
            CHANNELS 3 Zrotation Xrotation Yrotation
            JOINT HandRight
            {
              OFFSET -2.853615 6.788520 0.815515
              CHANNELS 3 Zrotation Xrotation Yrotation
              JOINT HandTipRight
              {
                OFFSET 0.673143 1.284854 -0.140050
                CHANNELS 3 Zrotation Xrotation Yrotation
                End Site
                {
                  OFFSET 0 0 0
                }
              }
              JOINT ThumbRight
              {
                OFFSET 0.433535 -2.848126 -3.035157
                CHANNELS 3 Zrotation Xrotation Yrotation
                End Site
                {
                  OFFSET 0 0 0
                }
              }
            }
          }
        }
      }
    }
  }
  JOINT HipLeft
  {
    OFFSET -5.374944 1.060389 -5.439467
    CHANNELS 3 Zrotation Xrotation Yrotation
    JOINT KneeLeft
    {
      OFFSET -4.732975 -30.197694 0.073605
      CHANNELS 3 Zrotation Xrotation Yrotation
      JOINT AnkleLeft
      {
        OFFSET -0.090164 -33.463634 8.497258
        CHANNELS 3 Zrotation Xrotation Yrotation
        JOINT FootLeft
        {
          OFFSET 3.239732 -1.311076 -11.769281
          CHANNELS 3 Zrotation Xrotation Yrotation
          End Site
          {
            OFFSET 0 0 0
          }
        }
      }
    }
  }
  JOINT HipRight
  {
    OFFSET 5.039165 0.480855 -0.831919
    CHANNELS 3 Zrotation Xrotation Yrotation
    JOINT KneeRight
    {
      OFFSET -0.126259 -25.244948 2.341490
      CHANNELS 3 Zrotation Xrotation Yrotation
      JOINT AnkleRight
      {
        OFFSET -9.269676 -37.542642 5.563792
        CHANNELS 3 Zrotation Xrotation Yrotation
        JOINT FootRight
        {
          OFFSET -2.707087 -4.534683 -7.652518
          CHANNELS 3 Zrotation Xrotation Yrotation
          End Site
          {
            OFFSET 0 0 0
          }
        }
      }
    }
  }
}
MOTION
Frames: 13
Frame Time: 0.033333
23.796704 68.762449 364.860537 -0.000000 0.000000 -23.866193 -0.000000 0.000000 23.866193 -0.000000 0.000000 0.000000 -0.000000 0.000000 0.000000 0.000000 0.000000 0.000000 -0.000000 0.000000 0.000000 -0.000000 0.000000 0.000000 -0.000000 0.000000 0.000000 -0.000000 0.000000 0.000000 0.000000 0.000000 0.000000 0.000000 0.000000 0.000000 -0.000000 0.000000 0.000000 -0.000000 0.000000 0.000000 -0.000000 0.000000 0.000000 -0.000000 0.000000 0.000000 0.000000 0.000000 0.000000 0.000000 0.000000 0.000000 -0.000000 0.000000 23.866193 -0.000000 0.000000 0.000000 -0.000000 0.000000 0.000000 0.000000 0.000000 0.000000 -0.000000 0.000000 23.866193 -0.000000 0.000000 0.000000 -0.000000 0.000000 0.000000 0.000000 0.000000 0.000000
23.820950 68.763485 364.851526 0.069455 0.082489 -24.410507 -0.029156 -0.103819 24.410431 -0.000000 0.000000 0.000000 -0.000000 0.000000 0.000000 0.000000 0.000000 0.000000 -0.000000 0.000000 0.000000 1.064523 0.184156 -0.255872 -1.841537 0.417952 0.387646 0.724122 -1.982634 -0.131580 0.000000 0.000000 0.000000 0.000000 0.000000 0.000000 -0.000000 0.000000 0.000000 -0.000000 0.000000 0.000000 -0.000000 0.000000 0.000000 -0.000000 0.000000 0.000000 0.000000 0.000000 0.000000 0.000000 0.000000 0.000000 -0.029156 -0.103819 24.410431 -2.088031 1.049544 -0.515132 0.375628 -8.427932 -5.523249 0.000000 0.000000 0.000000 0.709401 0.380469 24.488923 -0.872864 -0.134552 -0.081301 0.750339 -3.110581 0.643505 0.000000 0.000000 0.000000
23.839322 68.764519 364.848500 0.132206 0.155821 -24.884583 -0.054364 -0.196985 24.884310 -0.000000 0.000000 0.000000 -0.396663 -0.701148 0.133536 0.000000 0.000000 0.000000 -0.000000 0.000000 0.000000 1.994062 0.285681 -0.484610 -3.688483 0.644081 0.687291 1.737592 -3.666329 -0.207605 0.000000 0.000000 0.000000 0.000000 0.000000 0.000000 -0.232979 0.789772 0.032524 0.232553 -0.789898 -0.029315 -0.000000 0.000000 0.000000 -0.000000 0.000000 0.000000 0.000000 0.000000 0.000000 0.000000 0.000000 0.000000 -0.054364 -0.196985 24.884310 -3.934235 2.001621 -0.940095 -1.099384 -18.528978 -13.503169 0.000000 0.000000 0.000000 1.047344 0.611350 25.003260 -1.340130 -0.266828 -0.126055 1.809732 -5.489665 0.343196 0.000000 0.000000 0.000000
23.851821 68.765551 364.851457 0.188249 0.219991 -25.292635 -0.076215 -0.279330 25.292087 -0.000000 0.000000 0.000000 -0.505346 -0.912509 0.172903 0.000000 0.000000 0.000000 0.510459 0.630593 -0.209454 2.301592 -0.306427 -0.454666 -5.560515 0.536012 0.869209 3.061619 -4.936397 -0.199705 0.000000 0.000000 0.000000 0.000000 0.000000 0.000000 -0.330732 1.137868 0.048887 0.329826 -1.138131 -0.042327 -0.000000 0.000000 0.000000 -0.000000 0.000000 0.000000 0.000000 0.000000 0.000000 0.000000 0.000000 0.000000 -0.076215 -0.279330 25.292087 -5.508109 2.832469 -1.278887 -5.489542 -29.243770 -24.561542 0.000000 0.000000 0.000000 0.990840 0.662710 25.413402 -1.368102 -0.392853 -0.129575 3.151259 -7.018529 -1.057627 0.000000 0.000000 0.000000
23.858446 68.766581 364.860399 0.237579 0.274995 -25.638121 -0.095205 -0.350716 25.637260 -0.000000 0.000000 0.000000 -0.555102 -1.031831 0.195063 0.000000 0.000000 0.000000 0.723631 0.852422 -0.289108 2.812008 -0.556509 -0.541986 -7.454539 -0.070772 0.888270 4.706027 -5.649558 -0.090731 0.000000 0.000000 0.000000 0.000000 0.000000 0.000000 -0.415817 1.454296 0.065033 0.414300 -1.454729 -0.054496 -0.000000 0.000000 0.000000 -0.000000 0.000000 0.000000 0.000000 0.000000 0.000000 0.000000 0.000000 0.000000 -0.095205 -0.350716 25.637260 -6.785412 3.522551 -1.537270 -13.204234 -38.392379 -38.392948 0.000000 0.000000 0.000000 0.543801 0.521146 25.722224 -0.954112 -0.508092 -0.090145 4.782185 -7.597917 -3.723687 0.000000 0.000000 0.000000
23.859197 68.767609 364.875326 0.280194 0.320827 -25.923816 -0.111746 -0.411037 25.922631 -0.000000 0.000000 0.000000 -0.546297 -1.059516 0.200401 0.000000 0.000000 0.000000 0.957966 1.079997 -0.373890 3.221584 -0.869528 -0.602836 -9.338870 -1.340507 0.688592 6.656263 -5.657013 0.111946 0.000000 0.000000 0.000000 0.000000 0.000000 0.000000 -0.488122 1.738763 0.080773 0.485894 -1.739387 -0.065990 -0.000000 0.000000 0.000000 -0.000000 0.000000 0.000000 0.000000 0.000000 0.000000 0.000000 0.000000 0.000000 -0.111746 -0.411037 25.922631 -7.748035 4.056840 -1.721566 -22.785526 -44.281373 -52.941678 0.000000 0.000000 0.000000 -0.111746 -0.411037 25.922631 -0.000000 0.000000 0.000000 6.751926 -7.154067 -7.794990 0.000000 0.000000 0.000000
23.854654 68.768863 364.895602 0.310993 0.363966 -26.134869 -0.118881 -0.463740 26.133400 -0.000000 0.000000 0.000000 -0.443868 -1.044911 0.198685 0.000000 0.000000 0.000000 1.300247 1.367756 -0.489010 3.845954 -1.426414 -0.704529 -13.881038 -6.710660 -0.792991 9.990843 -1.985188 0.858982 0.000000 0.000000 0.000000 0.000000 0.000000 0.000000 -0.588269 2.129974 0.102908 0.584848 -2.130916 -0.081095 -0.000000 0.000000 0.000000 -0.000000 0.000000 0.000000 0.000000 0.000000 0.000000 0.000000 0.000000 0.000000 -0.118881 -0.463740 26.133400 -8.541039 4.550994 -1.863327 -35.668324 -47.685455 -70.946703 0.000000 0.000000 0.000000 -1.482437 -0.588437 25.999754 1.280145 -0.485741 0.126553 8.113683 -7.437122 -10.280301 0.000000 0.000000 0.000000
23.854955 68.771438 364.940607 0.356246 0.364222 -26.301044 0.183793 0.263080 26.316925 -0.637744 -0.518437 -0.019907 -0.347680 -0.931132 0.177900 0.000000 0.000000 0.000000 1.669596 1.563708 -0.588058 4.052421 -1.825914 -0.732392 -16.914845 -10.838756 -2.186386 11.755801 0.896000 1.338062 0.000000 0.000000 0.000000 0.000000 0.000000 0.000000 -0.736255 2.420304 0.106106 0.732427 -2.421464 -0.075073 -0.000000 0.000000 0.000000 -0.000000 0.000000 0.000000 0.000000 0.000000 0.000000 0.000000 0.000000 0.000000 -0.157993 -0.484361 26.299244 -8.745962 4.707446 -1.896881 -43.831717 -48.039132 -81.827729 0.000000 0.000000 0.000000 -3.241008 -1.338338 25.955587 3.145250 -0.582598 0.310602 14.127981 -1.637780 -24.862848 0.000000 0.000000 0.000000
23.848805 68.770665 364.984075 0.418882 0.371057 -26.539459 0.182062 0.242765 26.556606 -0.690403 -0.506666 -0.021560 -0.000000 0.000000 0.000000 0.000000 0.000000 0.000000 2.076758 1.832193 -0.711483 3.858644 -2.927275 -0.658443 -17.559085 -8.614965 -1.429247 13.586750 -2.144081 0.916960 0.000000 0.000000 0.000000 0.000000 0.000000 0.000000 -1.152071 2.576631 0.046046 0.265753 -1.056251 0.788947 -1.993525 0.304624 0.281082 2.848733 -1.851186 -1.065391 0.000000 0.000000 0.000000 0.000000 0.000000 0.000000 -0.208961 -0.519114 26.537156 -8.224397 4.410394 -1.803762 -45.771887 -47.649375 -83.694703 0.000000 0.000000 0.000000 -4.540359 -1.731843 26.037740 4.422889 -0.814345 0.445741 17.713246 0.407075 -32.444630 0.000000 0.000000 0.000000
23.863359 68.775670 365.031078 0.470240 0.376737 -26.769323 0.200417 0.191656 26.787824 -0.735666 -0.457327 -0.022778 -0.000000 0.000000 0.000000 0.000000 0.000000 0.000000 2.662276 1.966320 -0.830526 2.611038 -3.034148 -0.411226 -14.925057 -12.557509 -2.727707 17.084719 3.904060 0.090449 0.000000 0.000000 0.000000 0.000000 0.000000 0.000000 -1.129390 2.961534 0.092821 1.036656 -1.455605 0.860290 0.112182 -0.738403 -0.576862 3.986595 7.187765 -4.402907 0.000000 0.000000 0.000000 0.000000 0.000000 0.000000 -0.250175 -0.548149 26.766581 -8.130848 4.444106 -1.781124 -39.475460 -47.578746 -75.713764 0.000000 0.000000 0.000000 -5.682609 -1.899279 26.137204 6.540963 -0.943909 0.692327 18.083421 2.584874 -35.797242 0.000000 0.000000 0.000000
23.805936 68.780571 365.059788 0.436363 0.405479 -26.730036 0.220055 0.156006 26.747937 -0.703226 -0.445599 -0.021689 -0.000000 0.000000 0.000000 0.000000 0.000000 0.000000 2.573386 1.773508 -0.770010 1.631526 -2.672652 -0.250027 -6.892461 -9.587521 -1.462570 17.161422 4.093719 -1.102575 0.000000 0.000000 0.000000 0.000000 0.000000 0.000000 -0.479655 2.809030 0.194643 2.217324 -3.521933 -0.282909 3.860188 0.982695 -0.415464 2.869576 10.494403 -5.202347 0.000000 0.000000 0.000000 0.000000 0.000000 0.000000 -0.207365 -0.558411 26.727481 -8.024057 4.480037 -1.755512 -40.229334 -47.823746 -76.120883 0.000000 0.000000 0.000000 -6.346871 -1.897985 26.022325 7.460580 -1.394605 0.868460 18.780978 5.843990 -38.321995 0.000000 0.000000 0.000000
23.753581 68.792270 365.069607 0.438530 0.446721 -26.420998 0.228182 0.110327 26.438714 -0.692121 -0.443762 -0.021328 -0.000000 0.000000 0.000000 0.000000 0.000000 0.000000 2.510523 1.619040 -0.722953 1.307121 -0.435753 -0.153196 -1.735743 -9.861968 -0.915778 15.307751 4.564941 -1.564112 0.000000 0.000000 0.000000 0.000000 0.000000 0.000000 0.516954 2.043765 0.302638 2.930625 -9.379335 -3.863345 10.424509 3.134244 -0.708919 -3.589356 1.708892 6.297784 0.000000 0.000000 0.000000 0.000000 0.000000 0.000000 -0.193965 -0.595183 26.418281 -7.910951 4.439636 -1.733426 -40.979948 -48.302849 -75.928711 0.000000 0.000000 0.000000 -6.723073 -1.804965 25.678618 7.940613 -1.832814 1.002900 21.084393 8.253994 -43.217945 0.000000 0.000000 0.000000
23.645375 68.770299 365.082897 0.302244 0.504469 -25.995215 -0.050567 -0.585902 25.993626 -0.000000 0.000000 0.000000 1.009934 0.822381 -0.166660 0.000000 0.000000 0.000000 0.973987 1.307089 -0.428664 4.457326 3.072365 -0.744291 3.753926 -1.565868 1.996819 11.481170 -3.229088 -1.759351 0.000000 0.000000 0.000000 0.000000 0.000000 0.000000 2.302527 0.683116 0.529123 -1.595339 -29.762400 -17.388067 17.151285 6.638848 -2.052996 -33.020750 -20.820630 34.280131 0.000000 0.000000 0.000000 0.000000 0.000000 0.000000 -0.050567 -0.585902 25.993626 -7.792049 4.308000 -1.715681 -41.200120 -47.586929 -77.252871 0.000000 0.000000 0.000000 -6.385230 -1.416268 25.309397 7.588650 -2.190832 1.017436 15.576078 8.630782 -33.465395 0.000000 0.000000 0.000000
